<svg xmlns="http://www.w3.org/2000/svg" width="16" height="16" viewBox="0 0 16 16"><defs><clipPath id="yhmza"><path fill="#fff" d="M8 0a8 8 0 1 1 0 16A8 8 0 0 1 8 0z"/></clipPath></defs><g><g><path fill="none" stroke="#e1e2e3" stroke-miterlimit="20" stroke-width="2" d="M8 0a8 8 0 1 1 0 16A8 8 0 0 1 8 0z" clip-path="url(&quot;#yhmza&quot;)"/></g><g><path fill="#c6c7c8" d="M7.234 9.756c.002-.505.061-.875.176-1.11.114-.234.342-.52.684-.855.2-.21.36-.435.48-.677.12-.242.18-.513.18-.812 0-.333-.068-.592-.205-.78-.137-.188-.333-.282-.587-.282-.209 0-.386.08-.531.238-.146.16-.22.392-.223.699H6.005l-.008-.033c-.008-.693.17-1.223.536-1.592.365-.368.842-.552 1.43-.552.632 0 1.128.205 1.488.615.36.41.54.966.54 1.67 0 .459-.105.883-.316 1.273-.21.39-.473.717-.79.98a1.27 1.27 0 0 0-.338.512c-.054.171-.08.407-.08.706zm1.24 2.242H7.23v-1.353h1.246z"/></g></g></svg>